<svg xmlns="http://www.w3.org/2000/svg" viewBox="0 0 600 424.15"><defs><style>.cls-1{fill:#fff;}.cls-2{fill:#1a171b;}</style></defs><title>Asset 3</title><g id="Layer_2" data-name="Layer 2"><g id="Layer_1-2" data-name="Layer 1"><path class="cls-1" d="M300,422.08l-.39-.07L2.25,368.89V55.26L300,2.07l.39.07L597.74,55.26V368.89Z"/><path class="cls-2" d="M300,25.21,24.81,74.48V349.67L300,398.94l275.19-49.27V74.48Zm0,304.12-.4-.07L69.53,288.06l.79-4.44L300,324.74l229.68-41.12.79,4.44Zm229.68-188.8L300,99.4,70.32,140.53l-.79-4.44L300,94.82l.4.07,230.08,41.2Z"/><path class="cls-2" d="M300,424.15l-.4-.07L0,370.43V53.71L300,0l.4.07L600,53.71V370.43ZM4.51,366.66,300,419.56l295.49-52.91V57.49L300,4.58,4.51,57.49Z"/><path class="cls-2" d="M300,413.84,10.15,361.94V62.21L300,10.31l289.85,51.9V361.94ZM16.92,356.27,300,407l283.08-50.69V67.87L300,17.19,16.92,67.87Z"/><path class="cls-1" d="M85,260.54H70.46V168H85v39.65h16.52V168h14.8v92.52h-14.8V220.89H85Z"/><path class="cls-1" d="M152.15,190.23c0-14.81,7.8-23.26,22.07-23.26s22.07,8.46,22.07,23.26v48.11c0,14.8-7.8,23.26-22.07,23.26s-22.07-8.46-22.07-23.26Zm14.54,49c0,6.61,2.91,9.12,7.53,9.12s7.53-2.51,7.53-9.12v-50c0-6.61-2.91-9.12-7.53-9.12s-7.53,2.51-7.53,9.12Z"/><path class="cls-1" d="M262.78,233.71H263L272.83,168h20.22v92.52H279.3V194.19H279l-9.78,66.35H255.51l-10.57-65.43h-.26v65.43H232V168h20.22Z"/><path class="cls-1" d="M373.55,189.3v3.3c0,9.52-2.91,15.47-9.38,18.5v.26c7.8,3,10.84,9.91,10.84,19.69v7.53c0,14.28-7.53,21.94-22.07,21.94H330.06V168H352C367.07,168,373.55,175,373.55,189.3Zm-28.95-8.06v24.45h5.68c5.42,0,8.72-2.38,8.72-9.78v-5.16c0-6.61-2.25-9.52-7.4-9.52Zm0,37.67v28.42h8.33c4.89,0,7.54-2.25,7.54-9.12v-8.06c0-8.59-2.78-11.24-9.39-11.24Z"/><path class="cls-1" d="M440.56,260.54c-.79-2.38-1.32-3.83-1.32-11.37V234.64c0-8.59-2.91-11.76-9.52-11.76h-5v37.67H410.16V168h21.94c15.07,0,21.54,7,21.54,21.28v7.27c0,9.52-3,15.6-9.52,18.64v.26c7.27,3,9.65,9.91,9.65,19.56v14.27c0,4.49.13,7.8,1.59,11.24ZM424.7,181.24v28.42h5.68c5.42,0,8.72-2.38,8.72-9.78v-9.12c0-6.61-2.25-9.52-7.4-9.52Z"/><path class="cls-1" d="M504.28,207h20v13.22h-20v27.1h25.11v13.22H489.73V168h39.65v13.22H504.28Z"/><path class="cls-1" d="M195.29,81.23l11.11-2,.36,2-11.11,2Z"/><path class="cls-1" d="M217.69,70.22l7.55-1.35.4,2.22-2.55.46,2.38,13.33-2.44.44L220.64,72l-2.55.46Z"/><path class="cls-1" d="M238.67,82.52a4.86,4.86,0,0,1-.56-1.87l-.44-2.44c-.26-1.44-.84-1.89-2-1.69l-.84.15L236,83l-2.44.44-2.78-15.55,3.69-.66c2.53-.45,3.83.53,4.26,2.93l.22,1.22c.29,1.6,0,2.71-1,3.42v0c1.31.29,1.92,1.38,2.21,3l.43,2.4a4.66,4.66,0,0,0,.6,1.84Zm-5-12.85.85,4.78,1-.17c.91-.16,1.39-.66,1.17-1.91l-.27-1.53c-.2-1.11-.66-1.53-1.53-1.38Z"/><path class="cls-1" d="M254.78,79.64l-2.47.44-.93-2.75-3,.54.08,2.9-2.24.4-.29-16,3.58-.64Zm-6.46-3.94,2.35-.42-2.56-7.66h0Z"/><path class="cls-1" d="M257.59,63.08l3.87-.69c2.44-.44,3.89.7,4.33,3.19l1.4,7.87c.44,2.49-.51,4.06-3,4.49l-3.87.69Zm2.84,1.79,2,11.11,1.38-.25c.78-.14,1.17-.62,1-1.73l-1.44-8.09c-.2-1.11-.74-1.43-1.51-1.29Z"/><path class="cls-1" d="M274.71,66.78l3.35-.6.4,2.22-3.36.6.81,4.55,4.22-.75.4,2.22-6.67,1.19L271.1,60.66l6.67-1.19.4,2.22-4.22.75Z"/><path class="cls-1" d="M322.62,70.93h0l3.62-10.75,3.4.61L326.9,76.35l-2.31-.41,2-11.15h0L322.9,75.63l-2.31-.41.19-11.32h0l-2,11-2.13-.38L319.41,59l3.4.61Z"/><path class="cls-1" d="M341,78.88l-2.47-.44.08-2.9-3-.54-.93,2.75-2.24-.4,5.27-15.11,3.58.64Zm-4.7-5.93,2.36.42.25-8.07h0Z"/><path class="cls-1" d="M351.71,80.79a4.88,4.88,0,0,1,.12-2l.44-2.44c.26-1.44-.14-2.06-1.25-2.26l-.84-.15L349,80.32l-2.44-.44,2.78-15.55,3.69.66c2.53.45,3.41,1.82,3,4.22l-.22,1.22c-.29,1.6-1,2.53-2.16,2.85v0c1.13.73,1.32,2,1,3.58l-.43,2.4a4.67,4.67,0,0,0-.07,1.94ZM351.42,67l-.85,4.78,1,.17c.91.16,1.54-.14,1.76-1.38l.28-1.53c.2-1.11-.09-1.67-1-1.82Z"/><path class="cls-1" d="M364.25,76.64l-1,1.29-.85,4.78-2.44-.44,2.78-15.55,2.44.44L364,73.88h0l4.36-6.17,2.44.44-4.64,6.33L368,83.71l-2.51-.45Z"/><path class="cls-1" d="M382.14,77.19l11.11,2-.36,2-11.11-2Z"/><path class="cls-1" d="M73.8,325.21h0l3.62-10.75,3.4.61-2.78,15.55-2.31-.41,2-11.15h0l-3.64,10.86-2.31-.41L72,318.18h0l-2,11-2.13-.38,2.78-15.55,3.4.61Z"/><path class="cls-1" d="M92.21,333.16l-2.47-.44.08-2.9-3-.54L85.9,332l-2.24-.4,5.27-15.11,3.58.64Zm-4.7-5.93,2.35.42.25-8.07h0Z"/><path class="cls-1" d="M100.54,318.6l3.87.69c2.44.44,3.4,2,3,4.49l-1.4,7.87c-.44,2.49-1.89,3.63-4.33,3.19l-3.87-.69Zm2,2.66-2,11.11,1.38.25c.78.14,1.32-.18,1.51-1.29l1.44-8.09c.2-1.11-.2-1.59-1-1.73Z"/><path class="cls-1" d="M115.36,328l3.35.6-.4,2.22-3.35-.6-.81,4.55,4.22.75-.4,2.22-6.67-1.19L114.08,321l6.67,1.19-.4,2.22-4.22-.75Z"/><path class="cls-1" d="M134.57,324.7l2.44.44-2.78,15.55-2.44-.44Z"/><path class="cls-1" d="M144.7,330.93h0l-2,11.26-2.2-.39,2.78-15.55,3.07.55.8,9.75h0l1.66-9.31,2.18.39-2.78,15.55-2.51-.45Z"/><path class="cls-1" d="M164.34,330l7.55,1.35-.4,2.22-2.55-.46-2.38,13.33-2.44-.44,2.38-13.33-2.55-.46Z"/><path class="cls-1" d="M177.06,348.35l-2.44-.44,2.78-15.55,2.44.44-1.19,6.67,2.78.5,1.19-6.67,2.49.45-2.78,15.55-2.49-.44,1.19-6.67-2.78-.5Z"/><path class="cls-1" d="M192.63,341.85l3.35.6-.4,2.22-3.35-.6-.81,4.55,4.22.75-.4,2.22-6.67-1.19,2.78-15.55,6.67,1.19-.4,2.22-4.22-.75Z"/><path class="cls-1" d="M214.16,338.94l-2.14,12c-.2,1.11.22,1.6,1,1.74s1.34-.17,1.54-1.29l2.14-12,2.31.41-2.11,11.84c-.44,2.49-1.94,3.69-4.34,3.26s-3.39-2.07-2.95-4.56l2.11-11.84Z"/><path class="cls-1" d="M228.42,341.31c2.38.43,3.35,2.06,2.9,4.55l-.09.49-2.31-.41.12-.64c.2-1.11-.17-1.61-.95-1.75s-1.3.2-1.5,1.31.14,2.06,1.49,3.75c1.72,2.16,2.14,3.57,1.82,5.35-.44,2.49-1.94,3.69-4.34,3.26s-3.39-2.07-2.95-4.56l.17-1,2.31.41-.2,1.11c-.2,1.11.22,1.6,1,1.74s1.34-.17,1.54-1.29-.14-2.06-1.49-3.75c-1.72-2.16-2.14-3.57-1.82-5.35C224.57,342.09,226,340.89,228.42,341.31Z"/><path class="cls-1" d="M243,360.15l-2.47-.44.08-2.9-3-.54-.93,2.75-2.24-.4,5.27-15.11,3.58.64Zm-4.7-5.93,2.35.42.25-8.07h0Z"/><path class="cls-1" d="M331.87,355.38l3.35-.6.4,2.22-3.35.6.81,4.55,4.22-.75.4,2.22L331,364.81l-2.78-15.55,6.67-1.19.4,2.22-4.22.75Z"/><path class="cls-1" d="M344.15,346.23c2.38-.43,3.85.78,4.3,3.27l.09.49-2.31.41-.12-.64c-.2-1.11-.72-1.45-1.49-1.31s-1.15.64-.95,1.75.84,1.89,2.69,3c2.37,1.43,3.24,2.61,3.56,4.38.45,2.49-.54,4.13-2.95,4.56s-3.9-.77-4.34-3.26l-.17-1,2.31-.41.2,1.11c.2,1.11.76,1.42,1.54,1.28s1.2-.62,1-1.74-.84-1.89-2.69-3c-2.37-1.43-3.24-2.61-3.56-4.38C340.8,348.29,341.77,346.65,344.15,346.23Z"/><path class="cls-1" d="M352.9,344.85l7.55-1.35.4,2.22-2.55.46,2.38,13.33-2.44.44-2.38-13.33-2.55.46Z"/><path class="cls-1" d="M375.83,356.79l-2.46.44-.93-2.75-3,.54.08,2.9-2.24.4-.29-16,3.58-.64Zm-6.46-3.94,2.36-.42-2.56-7.66h0Z"/><path class="cls-1" d="M386.58,342.51l.1.56c.29,1.6,0,2.69-1,3.39v0c1.4.28,2.12,1.34,2.41,3l.22,1.27c.43,2.4-.61,3.91-3.05,4.35l-3.84.69-2.78-15.55,3.69-.66C384.85,339.13,386.15,340.11,386.58,342.51Zm-5.11-.49.73,4.11,1-.17c.91-.16,1.4-.66,1.17-1.9l-.15-.87c-.2-1.11-.66-1.53-1.53-1.38Zm1.13,6.33.85,4.78,1.4-.25c.82-.15,1.2-.6,1-1.76l-.24-1.36c-.26-1.44-.8-1.8-1.91-1.61Z"/><path class="cls-1" d="M392.1,337.83l2.44-.44,2.38,13.33,4-.72.4,2.22-6.46,1.15Z"/><path class="cls-1" d="M404,335.69l2.44-.44,2.78,15.55-2.44.44Z"/><path class="cls-1" d="M416,333.37c2.38-.43,3.85.78,4.3,3.27l.09.49-2.31.41-.12-.64c-.2-1.11-.72-1.45-1.49-1.31s-1.15.64-.95,1.75.84,1.89,2.69,3c2.37,1.43,3.24,2.61,3.56,4.38.45,2.49-.54,4.13-2.95,4.56s-3.9-.77-4.34-3.26l-.17-1,2.31-.41.2,1.11c.2,1.11.76,1.42,1.54,1.28s1.2-.62,1-1.74-.84-1.89-2.69-3c-2.37-1.43-3.24-2.61-3.56-4.38C412.62,335.44,413.59,333.8,416,333.37Z"/><path class="cls-1" d="M430.7,347l-2.44.44-2.78-15.55,2.44-.44,1.19,6.66,2.78-.5-1.19-6.66,2.49-.45L436,346l-2.49.44-1.19-6.66-2.78.5Z"/><path class="cls-1" d="M443,335.47l3.35-.6.4,2.22-3.35.6.81,4.55,4.22-.75.4,2.22-6.66,1.19-2.78-15.55,6.67-1.19.4,2.22-4.22.75Z"/><path class="cls-1" d="M452,327.1l3.87-.69c2.45-.44,3.89.71,4.33,3.19l1.4,7.86c.45,2.49-.51,4.06-3,4.49l-3.87.69Zm2.84,1.79,2,11.11,1.38-.25c.78-.14,1.17-.62,1-1.73l-1.44-8.09c-.2-1.11-.74-1.43-1.51-1.29Z"/><path class="cls-1" d="M477.35,324.68c-.78.14-1.19.65-1,1.76l.3,1.67-2.31.41-.27-1.51c-.44-2.49.55-4.13,2.95-4.56s3.9.77,4.34,3.26c.37,2.07-.09,3.87-1.92,6.69-1.17,1.81-1.44,2.62-1.29,3.44a1.77,1.77,0,0,0,.08.33l4.62-.83.4,2.22-7.06,1.26-.34-1.91c-.31-1.73.08-3.15,1.56-5.39s1.83-3.63,1.53-5.29C478.69,324.83,478.13,324.54,477.35,324.68Z"/><path class="cls-1" d="M487.11,324.67c-.45-2.49.61-4.14,3-4.57s4,.76,4.41,3.25l1.45,8.09c.44,2.49-.61,4.14-3,4.57s-4-.76-4.41-3.25Zm3.92,7.8c.2,1.11.76,1.45,1.54,1.31s1.19-.65,1-1.76l-1.5-8.4c-.2-1.11-.76-1.45-1.54-1.31s-1.19.65-1,1.76Z"/><path class="cls-1" d="M501.76,320.21a2.46,2.46,0,0,0,2.34-2.44l1.64-.29L508.52,333l-2.45.44L504,321.61l-1.89.34Z"/><path class="cls-1" d="M520.31,314.87l.38,2.13-1.2,14.06-2.44.44,1.2-14-4.87.87-.4-2.22Z"/><path class="cls-1" d="M276.05,121.52a27.66,27.66,0,0,0-13.77,3.77q-7.8,4.42-7.8,10.95a3.37,3.37,0,0,0,1.44,2.93,5.48,5.48,0,0,0,3.23.88q5,0,9.84-5.3a21.39,21.39,0,0,0,5.5-10.13l.77.16a25.31,25.31,0,0,1-5.65,10.92,14.09,14.09,0,0,1-10.78,5.11,5.57,5.57,0,0,1-3.74-1.21,4.5,4.5,0,0,1-1.51-3.6,10.38,10.38,0,0,1,3-6.83,24.25,24.25,0,0,1,6-4.79,25.27,25.27,0,0,1,12.9-3.39,27.77,27.77,0,0,1,5.79.49,17.67,17.67,0,0,1,5.37,2.18q1.54-.74,4.7-2l.21.49a24.76,24.76,0,0,0-4.39,2.14q2.79,3.07,2.79,5.74a7.7,7.7,0,0,1-3.44,6.53,15.69,15.69,0,0,1-7.25,2.58,7.2,7.2,0,0,1,1,3.6,8.52,8.52,0,0,1-1.6,4.76,26.53,26.53,0,0,1-3,3.42q-1.6,1.63-1.6,2.21t.58.44q1.72,0,5.55-2.44a39.24,39.24,0,0,0,5.14-3.77l.49.54q-7.3,6.39-11.57,6.39-2.19,0-2.18-2.88a6,6,0,0,1,1.77-3.79l3.3-3.51a6.63,6.63,0,0,0,1.79-4.16q0-.14-.09-.77h-.44a7.23,7.23,0,0,1-1.79-.19q-1.37-.33-1.25-1l.09-.14a1.86,1.86,0,0,1,1-.26,5.56,5.56,0,0,1,2.77,1,13.31,13.31,0,0,0,5.76-4.58,11.42,11.42,0,0,0,2.46-6.88,4.85,4.85,0,0,0-.91-2.53,21.58,21.58,0,0,0-6.24,5.88q-3.4,4.37-5.94,8.23a52.78,52.78,0,0,1-7.21,9.21,24.07,24.07,0,0,1-10.25,5.54,21,21,0,0,1-5.46.81,10.89,10.89,0,0,1-4.49-.84,3.64,3.64,0,0,1-2.49-3.44,3.17,3.17,0,0,1,1.14-2.31,3.43,3.43,0,0,1,2.37-1.08q1.77,0,1.77,1.44a1.54,1.54,0,0,1-.53,1.2,1.83,1.83,0,0,1-1.25.48,2.37,2.37,0,0,1-.9-.26,2.38,2.38,0,0,0-.87-.26c-.54,0-.81.3-.81.91q0,3.44,5.6,3.44a14.26,14.26,0,0,0,8.79-3.35,43.91,43.91,0,0,0,7.07-7.44q5.51-7,6.11-7.63a54.06,54.06,0,0,1,13-11,13.89,13.89,0,0,0-4.71-2.16A23.19,23.19,0,0,0,276.05,121.52Z"/><path class="cls-1" d="M289.67,152.31q0,1.3,1.81,1.3,2.49,0,6.55-2.21a31,31,0,0,0,5.83-4l.42.53q-7.6,6.32-12.9,6.32-4.18,0-4.18-3.37,0-4.37,5.72-8.46,5.32-3.83,9.9-3.83,1.91,0,1.91,1.77,0,2-5.21,4.56a46.4,46.4,0,0,1-7.14,2.88,10.17,10.17,0,0,0-1.67,2.12A5.35,5.35,0,0,0,289.67,152.31Zm14.2-12.55c0-.36-.38-.53-1.14-.53q-1.58,0-5.09,3a47.31,47.31,0,0,0-4.53,4.44,28.81,28.81,0,0,0,6.39-2.49Q303.87,141.9,303.87,139.76Z"/><path class="cls-1" d="M323,139h4.28q-2.81,3.56-5.6,7.11-4.27,5.58-4.53,6.88a.53.53,0,0,0,.42.23q2.49,0,8.39-5.86l.46.63a26.37,26.37,0,0,1-4.39,3.83q-3.39,2.49-5,2.49a2.48,2.48,0,0,1-1.8-.85,2.56,2.56,0,0,1-.82-1.8,11.86,11.86,0,0,1,.58-2.35,16,16,0,0,1-3.72,3.28,8.8,8.8,0,0,1-4.53,1.72,2.55,2.55,0,0,1-2-.92,3.23,3.23,0,0,1-.79-2.17q0-4.46,5.46-8.69,5.18-4,9.79-4,2.32,0,2.32,1.88a2.53,2.53,0,0,1-.14.79Zm-16.69,13.78q0,.81.9.81,2.46,0,7.95-5.41t5.49-7.87q0-.77-.84-.77-2.32,0-7.91,5.46T306.36,152.78Z"/><path class="cls-1" d="M339,147.94q-3.23,2.93-4.62,4-3.23,2.37-5.32,2.37-1.86,0-1.86-2.74,0-3.25,5.83-10.67a90.21,90.21,0,0,1,12.13-12.76q7.13-6.18,10.41-6.18,1.14,0,1.14,1.23,0,4-16.18,16.32-1.42,1.07-2.86,2.12l-1.54,1.14a13,13,0,0,0-1.28,1.56l-3,4.3q-2.49,3.42-2.49,4.32,0,.51.77.51,1.51,0,8.53-6.09Zm16.62-24.54q0-.77-.86-.77-2.42,0-8.86,7.59-1.14,1.32-8,10.14a108,108,0,0,0,10.11-8Q355.6,125.74,355.61,123.4Z"/></g></g></svg>